<?xml version="1.0" encoding="UTF-8" standalone="no"?>
<svg
   id="Layer_3"
   version="1.1"
   viewBox="0 0 367.89 162.71"
   sodipodi:docname="logo.svg"
   inkscape:version="1.4 (e7c3feb1, 2024-10-09)"
   xmlns:inkscape="http://www.inkscape.org/namespaces/inkscape"
   xmlns:sodipodi="http://sodipodi.sourceforge.net/DTD/sodipodi-0.dtd"
   xmlns="http://www.w3.org/2000/svg"
   xmlns:svg="http://www.w3.org/2000/svg">
  <sodipodi:namedview
     id="namedview23"
     pagecolor="#ffffff"
     bordercolor="#000000"
     borderopacity="0.25"
     inkscape:showpageshadow="2"
     inkscape:pageopacity="0.0"
     inkscape:pagecheckerboard="0"
     inkscape:deskcolor="#d1d1d1"
     inkscape:zoom="2.8704231"
     inkscape:cx="183.77082"
     inkscape:cy="81.346892"
     inkscape:window-width="2448"
     inkscape:window-height="1186"
     inkscape:window-x="0"
     inkscape:window-y="767"
     inkscape:window-maximized="0"
     inkscape:current-layer="g19" />
  <!-- Generator: Adobe Illustrator 29.6.1, SVG Export Plug-In . SVG Version: 2.1.1 Build 9)  -->
  <defs
     id="defs1">
    <style
       id="style1">
      .st0, .st1, .st2 {
        fill: none;
      }

      .st1 {
        stroke: #a7a9ac;
        stroke-width: .94px;
      }

      .st1, .st2 {
        stroke-miterlimit: 10;
      }

      .st2 {
        stroke: #939598;
        stroke-width: 1.89px;
      }

      .st3 {
        fill: #939598;
      }

      .st4 {
        clip-path: url(#clippath);
      }

      .st5 {
        fill: #a7a9ac;
      }
    </style>
    <clipPath
       id="clippath">
      <rect
         class="st0"
         width="130.34"
         height="65.7"
         id="rect1" />
    </clipPath>
  </defs>
  <path
     class="st5"
     d="M156.27,97.6v39.89h8.24v-39.07c4.71-4.07,10.42-4.98,16.44-3.74l3.06-6.26c-9.75-1.93-21.12,1.79-27.74,9.18Z"
     id="path1" />
  <path
     class="st5"
     d="M265.87,96.64l2.62-4.66c-7.06-4.44-16.77-5.89-24.19-1.38-5.9,3.59-8.69,11.64-4.75,17.64,4.91,7.47,21.05,8.06,23.5,13.83,2.78,6.54-3.72,10.57-9.44,11-5.14.38-9.62-1.61-13.95-4.1l-2.6,4.06c-.15.38.01.5.24.75,1.04,1.16,6.01,3.39,7.63,3.9,11.49,3.6,27.69-1.37,26.44-15.7-.88-10.1-15.53-11.75-22.62-15.81-3.76-2.15-4.94-6.01-1.96-9.52,4.4-5.17,13.92-2.98,19.07-.02Z"
     id="path2" />
  <path
     class="st5"
     d="M309.27,96.64l2.62-4.66c-8.55-6.13-25.7-6-29.87,5.3-3.11,8.43,1.62,13.56,8.85,16.77,5.7,2.53,19.1,4.52,15.71,13.5-1.96,5.2-9.69,6.05-14.41,5.21-3.37-.6-6.16-2.22-9.11-3.79l-2.61,4.65c7.89,5.84,19.49,7.34,27.97,1.79,7.88-5.16,9.06-16.17.94-21.73-4.72-3.23-16.51-5.72-19.6-9.23-2.03-2.31-1.19-6.17.86-8.2,4.72-4.66,13.5-2.56,18.64.38Z"
     id="path3" />
  <path
     class="st3"
     d="M333.72,134.2v28.51l-7.23-2.51-.46-.64.15-63.2c6.2-6.45,18.09-9.67,26.79-7.83,20.58,4.35,21.31,51.93-6.74,50.05-4.55-.31-8.52-2.42-12.5-4.38ZM333.78,128.66c8.86,5.71,20.72,6.81,23.82-5.59,1.63-6.52,1.51-18.22-1.86-24.15-3.24-5.7-8.4-6.16-14.39-4.95-1.27.26-7.21,2.31-7.58,3.4v31.29Z"
     id="path4" />
  <path
     class="st3"
     d="M219.45,107.33v-5.62c0-1.21-1.5-3.86-2.33-4.8-4.99-5.68-15.22-3.22-21.01,0l-1.92-4.53c3.6-1.99,7.55-3.47,11.67-3.97,8.44-1.02,20.01,1.85,21.01,11.93.92,9.25-.69,19.94.02,29.35l-.16.67c-6.35,6.51-19.8,10.51-28.21,6.51-8.21-3.92-11.3-14.1-6.86-22.04,5.45-9.73,18.49-7.13,27.79-7.49ZM219.18,112.54h-11.95c-.7,0-3.28.84-4.05,1.16-8.4,3.54-6.47,15.46,1.35,18.54,5.08,2,10.64.31,14.65-3.11v-16.59Z"
     id="path5" />
  <path
     class="st3"
     d="M265.87,96.64c-5.14-2.96-14.66-5.15-19.07.02-2.99,3.51-1.8,7.37,1.96,9.52,7.09,4.06,21.74,5.71,22.62,15.81,1.25,14.33-14.95,19.29-26.44,15.7-1.62-.51-6.59-2.74-7.63-3.9-.22-.25-.39-.38-.24-.75l2.6-4.06c4.33,2.48,8.81,4.48,13.95,4.1,5.72-.43,12.23-4.46,9.44-11-2.46-5.77-18.59-6.36-23.5-13.83-3.95-6-1.15-14.05,4.75-17.64,7.42-4.52,17.13-3.07,24.19,1.38l-2.62,4.66Z"
     id="path6" />
  <path
     class="st3"
     d="M309.27,96.64c-5.14-2.94-13.93-5.04-18.64-.38-2.05,2.03-2.89,5.89-.86,8.2,3.08,3.5,14.88,6,19.6,9.23,8.13,5.55,6.95,16.57-.94,21.73-8.48,5.55-20.08,4.06-27.97-1.79l2.61-4.65c2.95,1.57,5.75,3.19,9.11,3.79,4.72.83,12.44-.01,14.41-5.21,3.4-8.99-10.01-10.97-15.71-13.5-7.23-3.21-11.96-8.34-8.85-16.77,4.17-11.3,21.32-11.43,29.87-5.3l-2.62,4.66Z"
     id="path7" />
  <path
     class="st3"
     d="M117.56,162.43l-1.11-4.92c5.95-1.06,14.23-1.69,17.86-7.26,2.92-4.48,1.96-11.73,2.19-16.87-6.96,4.8-17.23,7.28-24.75,2.37-16.52-10.78-11.92-48.61,10.61-47.6,7.58.34,16.35,3.69,21.78,8.96-.25,12.7.52,25.67.07,38.34-.16,4.41-.47,10.28-2.08,14.38-3.58,9.13-15.63,12.42-24.57,12.6ZM122.43,93.7c-15.48,1.6-15.31,35.72-2.2,39.05,5.88,1.5,11.23-1.7,15.95-4.77l-.09-29.98c-3.93-2.74-8.73-4.81-13.65-4.3Z"
     id="path8" />
  <path
     class="st3"
     d="M156.27,97.6c6.62-7.39,17.99-11.11,27.74-9.18l-3.06,6.26c-6.02-1.24-11.73-.32-16.44,3.74v39.07h-8.24v-39.89Z"
     id="path9" />
  <g
     class="st4"
     clip-path="url(#clippath)"
     id="g19">
    <circle
       class="st2"
       cx="65.04"
       cy="65.7"
       id="circle9"
       r="61.99"
       style="stroke-width:3.174;stroke-dasharray:none" />
    <circle
       class="st2"
       cx="62.39"
       cy="71.95"
       r="21.15"
       id="circle10" />
    <circle
       class="st2"
       cx="64.499519"
       cy="61.250282"
       r="3.97"
       id="circle11" />
    <path
       class="st2"
       d="M37.76,49.76c-4.46,9.68-10.93,16.21-14.44,14.59-3.51-1.62-2.74-10.78,1.72-20.46,2.45-5.3,5.49-9.66,8.32-12.25,2.34-2.14,4.53-3.07,6.12-2.34,3.51,1.62,2.74,10.78-1.72,20.46Z"
       id="path11" />
    <line
       class="st2"
       x1="36.76"
       y1="34.51"
       x2="33.24"
       y2="32.89"
       id="line11" />
    <line
       class="st2"
       x1="40.98"
       y1="43.69"
       x2="35.35"
       y2="41.09"
       id="line12" />
    <line
       class="st2"
       x1="31.5"
       y1="46.55"
       x2="25.93"
       y2="43.98"
       id="line13" />
    <line
       class="st2"
       x1="35.78"
       y1="55.75"
       x2="29.85"
       y2="53.02"
       id="line14" />
    <line
       class="st2"
       x1="25.7"
       y1="58.33"
       x2="22.18"
       y2="56.71"
       id="line15" />
    <path
       class="st2"
       d="M72.23,37.32c9.31,1.9,16.88,8.56,20.09,17.31"
       id="path15" />
    <path
       class="st2"
       d="M50.19,46.18c3.9-2.93,8.69-4.77,13.94-5.04,6.99-.35,13.46,2.16,18.28,6.51"
       id="path16" />
    <path
       class="st2"
       d="M55.28,48.36c2.85-1.24,5.99-1.92,9.29-1.92,12.89,0,23.33,10.45,23.33,23.33"
       id="path17" />
    <circle
       class="st2"
       cx="103.21"
       cy="35.36"
       r="6.11"
       id="circle17" />
    <circle
       class="st2"
       cx="87.91"
       cy="32.66"
       r="3.06"
       id="circle18" />
    <circle
       class="st2"
       cx="96.29"
       cy="60.9"
       r="3.55"
       id="circle19" />
  </g>
  <line
     class="st1"
     x1="64.49"
     y1="82.12"
     x2="64.49"
     y2="65.7"
     id="line19" />
  <path
     class="st3"
     d="M39.29,100.3c-.37-2.48-2.84-3.76-4.77-3.52-.07,0-.12.03-.19.04h0s-.09.01-.14.03c-.08.02-.17.03-.25.06-.88.18-2.99.43-4.99-.95-2.63-1.81-2.81-4.9-2.81-5.2v.02c-.02-.05-.01-.1-.02-.15,0-.03-.02-.06-.02-.09-.03-.17-.08-.33-.13-.5-.03-.11-.06-.22-.1-.32-.05-.13-.12-.26-.19-.38-.06-.13-.13-.25-.2-.37-.02-.03-.03-.07-.06-.1-.05-.08-.12-.14-.18-.21,0,0,0-.01-.01-.02h.03c-.21-.24-2.09-2.51-1.42-5.6.61-2.85,2.94-4.14,3.27-4.32h-.02c.06-.04.12-.06.17-.1.1-.07.18-.15.27-.23.02-.02.05-.04.07-.06.19-.16.35-.33.5-.51.02-.03.05-.06.07-.09.15-.19.27-.39.39-.59.01-.02.03-.04.04-.07.01-.03.02-.05.03-.08.09-.19.17-.38.23-.58.03-.09.05-.17.07-.26.04-.16.07-.32.09-.49.01-.12.03-.24.03-.36,0-.13,0-.27,0-.4,0-.15-.02-.29-.05-.44-.02-.11-.04-.21-.07-.31-.04-.17-.1-.34-.16-.51-.03-.07-.06-.14-.09-.21-.09-.2-.2-.39-.32-.58-.01-.02-.02-.04-.03-.06-.01-.02-.03-.03-.04-.05-.14-.2-.3-.39-.48-.56-.02-.02-.04-.04-.06-.06-.18-.17-.37-.32-.59-.46-.02-.01-.04-.03-.06-.04-.1-.06-.19-.14-.3-.2-.11-.06-.23-.08-.34-.13-.04-.01-.07-.03-.11-.04-.22-.08-.44-.15-.66-.19-.06-.01-.12-.02-.19-.03-.18-.02-.36-.05-.53-.05-.85-.02-1.72.21-2.47.73-.34.23-.6.51-.84.81-.2.22-.37.46-.51.7-.03.06-.05.12-.08.17h0s-.03.07-.05.12c-.03.08-.07.16-.1.24-.36.82-1.4,2.68-3.69,3.5-3,1.07-5.62-.58-5.86-.75v.02s-.08-.06-.12-.08c-2.06-1.06-4.59-.25-5.64,1.81-1.06,2.06-.25,4.59,1.81,5.64,2.06,1.06,4.59.25,5.64-1.81.05-.09.07-.19.11-.28v.03c.13-.31,1.24-3.03,4.28-3.9,1.98-.57,3.67-.01,4.61.43.58.86,1.39,2.47,1.08,4.54-.42,2.79-2.56,4.3-3.24,4.71-.05.03-.11.06-.16.09,0,0-.02.01-.02.01h0s0,0-.02.01c-.04.02-.09.04-.13.07-.1.07-.18.15-.27.23-.07.06-.15.12-.22.18-.04.04-.08.09-.12.13-.18.19-.34.39-.49.61-.02.03-.05.06-.07.1-.03.04-.04.09-.07.13-.23.41-.39.85-.47,1.32,0,.04-.01.09-.02.13-.03.22-.05.44-.04.67,0,.11,0,.22.02.34,0,.07,0,.14.01.22,0,.04.02.08.03.12.03.19.08.37.14.56.03.11.07.21.12.31.01.03.02.07.04.1.05.12.12.23.18.34.03.05.05.1.08.15.03.06.06.13.1.19.04.06.08.1.12.15h-.01s.06.07.1.11c.05.07.1.14.16.2.55.71,1.7,2.5,1.34,4.9-.47,3.15-3.16,4.68-3.43,4.81h.02s-.09.05-.13.08c-1.9,1.32-2.38,3.93-1.06,5.83,1.32,1.9,3.93,2.38,5.83,1.06,1.9-1.32,2.38-3.93,1.06-5.83-.06-.08-.13-.15-.19-.23h.03c-.21-.24-2.09-2.51-1.42-5.6.45-2.07,1.79-3.32,2.63-3.91,1.05-.14,3.13-.16,5,1.31,2.29,1.8,2.43,4.46,2.44,4.84h0c0,.05,0,.12.01.19.34,2.29,2.48,3.87,4.77,3.52s3.87-2.48,3.52-4.77Z"
     id="path19" />
  <path
     class="st3"
     d="M115.38,79.81c-.88-2.14-3.33-3.16-5.47-2.28-.09.04-.17.1-.26.14v-.03c-.28.16-2.89,1.51-5.77.2-2.65-1.2-3.43-3.75-3.53-4.12v.02c-.03-.06-.04-.13-.07-.19-.48-1.16-1.43-1.98-2.53-2.35-.05-.02-.1-.03-.15-.05-.19-.06-.38-.1-.58-.13-.11-.02-.22-.03-.32-.03-.09,0-.18-.02-.28-.02-.06,0-.12.01-.18.01-.14,0-.27.02-.41.04-.13.02-.27.04-.4.07-.14.03-.28.08-.42.12-.08.03-.17.04-.25.08-.04.02-.07.04-.1.06-.17.08-.34.17-.5.28-.08.05-.16.09-.23.14-.47.34-.88.77-1.19,1.3-.05.09-.08.18-.12.27v-.03c-.14.3-1.39,2.96-4.47,3.68-2.84.66-5-.89-5.31-1.12v.02c-.05-.04-.1-.08-.16-.11-.77-.44-1.62-.61-2.44-.55-1.35.09-2.63.83-3.35,2.08-.05.09-.08.18-.12.27v-.03c-.14.3-1.39,2.96-4.47,3.68-2.45.57-4.39-.51-5.08-.96-.06-.05-.12-.1-.18-.14-.12-.08-.25-.15-.38-.22-.11-.06-.22-.12-.33-.17-.15-.06-.31-.11-.47-.15-.09-.02-.17-.06-.26-.08-.02,0-.04,0-.06,0-.17-.03-.34-.04-.52-.06-.1,0-.21-.03-.31-.03-.15,0-.31.02-.46.04-.12.01-.24.01-.35.04-.13.03-.26.08-.39.11-.13.04-.27.07-.39.12-.1.04-.2.11-.3.16-.14.07-.29.14-.43.24-.02.01-.04.02-.05.03-.06.04-.11.1-.17.14-.16.12-.31.25-.45.4-.05.06-.1.12-.15.18-.45.52-.79,1.14-.94,1.86-.02.1-.02.2-.03.3l-.02-.02c-.03.33-.4,3.25-3.1,4.88-2.49,1.51-5.03.71-5.39.58h0c-.07,0-.12-.03-.19-.04-2.26-.48-4.49.96-4.97,3.23-.48,2.26.96,4.49,3.23,4.97,2.45.52,4.52-1.34,4.97-3.23.02-.06.02-.13.03-.19h0s0-.08.02-.14c.01-.09.03-.17.04-.25.14-.89.65-2.95,2.65-4.34,1.55-1.08,3.22-1.2,4.38-1.09.5.92.99,2.29.74,3.96-.4,2.67-2.38,4.17-3.15,4.65-.13.07-.26.15-.38.24,0,0-.01,0-.02,0,0,0-.01.01-.02.02-1.41.98-2.11,2.75-1.66,4.47.12.88.24,3.24-1.52,5.26-1.91,2.19-4.58,2.21-4.96,2.2h.01c-.07.01-.13,0-.2.01-.07,0-.13.03-.2.04-.04,0-.07.01-.1.02-.79.14-1.5.48-2.06.99-.41.35-.76.75-1,1.19-.03.06-.05.12-.08.17h0s-.03.07-.05.12c-.03.08-.07.16-.1.24-.36.82-1.4,2.68-3.69,3.5-3,1.07-5.62-.58-5.86-.75v.02s-.08-.06-.12-.08c-2.06-1.06-4.59-.25-5.64,1.81-1.06,2.06-.25,4.59,1.81,5.64,2.06,1.06,4.59.25,5.64-1.81.05-.09.07-.19.11-.28v.03c.13-.31,1.24-3.03,4.28-3.9,2.8-.8,5.04.63,5.36.85v-.02c.05.03.1.07.16.11.07.04.14.05.21.08.66.3,1.39.46,2.17.38.87-.09,1.6-.45,2.19-.95.01-.01.03-.02.05-.03.11-.1.21-.21.31-.31.28-.29.53-.6.72-.98.14-.27.24-.56.32-.84.14-.49.21-1,.17-1.47,0-.07-.02-.13-.03-.19h0s-.02-.08-.03-.14c-.01-.08-.02-.17-.04-.25-.14-.88-.28-3.01,1.2-4.94,1.94-2.53,5.03-2.56,5.33-2.55h-.01c.05-.01.1,0,.15-.01.11-.01.22-.05.33-.07.06-.01.11-.02.17-.03.1-.02.19-.06.28-.09.03,0,.07-.01.1-.02.05-.01.09-.03.13-.05.01,0,.03,0,.04-.01h0s.03,0,.04-.01c.02,0,.04-.01.06-.02.03-.01.06-.03.09-.04.03-.01.05-.03.07-.04.03-.01.07-.03.1-.04.83-.33,2.87-.95,5.08.06,2.31,1.05,3.24,3.16,3.55,4.13.07.32.61,3.21-1.47,5.59-1.91,2.19-4.58,2.21-4.96,2.2h.01c-.07.01-.13,0-.2.01-2.3.23-3.98,2.29-3.75,4.59.23,2.3,2.29,3.98,4.59,3.75,2.5-.25,3.89-2.65,3.75-4.59,0-.07-.02-.13-.03-.19h0s-.02-.08-.03-.14c-.01-.09-.02-.17-.04-.25-.14-.88-.28-3.01,1.2-4.94,1.65-2.15,4.12-2.5,5.01-2.55.44,0,3.28.07,5.18,2.5,1.79,2.3,1.3,4.91,1.22,5.29h.01c0,.06-.03.12-.03.19-.21,2.31,1.49,4.34,3.79,4.55,2.31.21,4.34-1.49,4.55-3.79.23-2.5-1.87-4.32-3.8-4.55-.07,0-.13,0-.19,0h0s-.09,0-.15,0c-.09,0-.17,0-.26,0-.9-.03-3.01-.29-4.62-2.11-2.12-2.38-1.56-5.43-1.5-5.72h-.01s.02-.09.03-.14c.05-.6-.03-1.19-.21-1.73,0,0,0-.02,0-.02-.02-.07-.06-.13-.09-.2-.07-.17-.14-.34-.23-.5-.1-.18-.22-.35-.35-.51-.03-.04-.06-.09-.09-.13-1.08-1.3-2.87-1.87-4.56-1.3-.1.03-.18.08-.27.12v-.03c-.28.14-2.98,1.32-5.77-.18-2.08-1.11-2.86-3.01-3.13-3.89,0,0,0,0,0,0-.01-.08-.03-.17-.05-.25-.04-.19-.1-.36-.17-.54-.03-.08-.07-.16-.1-.25-.08-.17-.17-.33-.27-.49-.03-.05-.05-.1-.08-.14-.03-.04-.06-.07-.09-.11-.03-.04-.05-.08-.08-.12h0s-.02-.02-.02-.03c-.02-.02-.03-.04-.05-.06-.4-.49-1.97-2.65-1.35-5.52.61-2.85,2.94-4.14,3.27-4.32h0s.07-.05.11-.07c.02-.01.04-.02.06-.03.08-.06.14-.13.22-.19.12-.1.25-.2.36-.31.04-.04.07-.08.1-.11.22-.22.42-.45.58-.71.03-.06.06-.11.09-.17h0s.04-.07.06-.12c.04-.08.08-.15.11-.23.4-.8,1.53-2.6,3.86-3.31,3.05-.92,5.58.86,5.82,1.05v-.02s.07.06.12.09c1.76,1.02,3.94.62,5.24-.85.21-.22.41-.44.56-.69.03-.06.06-.11.09-.17h0s.04-.07.06-.12c.04-.08.08-.15.11-.23.4-.8,1.53-2.6,3.86-3.31,1.94-.59,3.67-.08,4.74.42.33,1.01.6,2.56-.05,4.27-1.13,2.98-4.08,3.9-4.37,3.98h.02s-.1.03-.15.05c-2.14.88-3.16,3.33-2.28,5.47.88,2.14,3.33,3.16,5.47,2.28,2.14-.88,3.16-3.33,2.28-5.47-.04-.09-.1-.17-.14-.26h.03c-.16-.28-1.51-2.89-.2-5.77,1.2-2.65,3.75-3.43,4.12-3.53h-.01c.07-.03.16-.04.23-.07.06-.02.11-.06.17-.08h0s.08-.03.13-.06c.08-.04.16-.07.23-.11.81-.39,2.8-1.13,5.07-.27,2.98,1.13,3.9,4.08,3.98,4.37v-.02s.03.1.05.15c.88,2.14,3.33,3.16,5.47,2.28,2.14-.88,3.16-3.33,2.28-5.47Z"
     id="path20" />
  <path
     class="st3"
     d="M27.47,71.85c-.24-.14-2.37-1.48-2.3-3.75.06-2.09,1.94-3.33,2.22-3.5l-5.23.06c.27.15,2.24,1.34,2.36,3.45.12,2.29-2.05,3.67-2.27,3.8"
     id="path21" />
  <path
     class="st3"
     d="M99.02,71.85c-.24-.14-2.37-1.48-2.3-3.75.06-2.09,1.94-3.33,2.22-3.5l-5.23.06c.27.15,2.24,1.34,2.36,3.45.12,2.29-2.05,3.67-2.27,3.8"
     id="path22" />
  <path
     class="st3"
     d="M67.3,80.44c-.24-.32-2.39-3.25-2.35-8.18.03-4.55,1.9-7.21,2.17-7.59l-5.23.06c.27.34,2.26,2.95,2.4,7.54.15,4.98-2,7.95-2.22,8.24"
     id="path23" />
</svg>
